<?xml version="1.0" standalone="no"?>
<!DOCTYPE svg PUBLIC "-//W3C//DTD SVG 20010904//EN"
 "http://www.w3.org/TR/2001/REC-SVG-20010904/DTD/svg10.dtd">
<svg version="1.0" xmlns="http://www.w3.org/2000/svg"
 width="260.000000pt" height="260.000000pt" viewBox="0 0 260.000000 260.000000"
 preserveAspectRatio="xMidYMid meet">
<metadata>
Created by potrace 1.14, written by Peter Selinger 2001-2017
</metadata>
<g transform="translate(0.000000,260.000000) scale(0.100000,-0.100000)"
fill="#000000" stroke="none">
<path d="M0 1300 l0 -1300 1300 0 1300 0 0 1300 0 1300 -1300 0 -1300 0 0
-1300z m2028 152 c3 -18 -1 -22 -22 -22 -19 0 -26 5 -26 18 0 39 43 43 48 4z
m-1809 7 c65 -23 83 -119 31 -171 l-31 -30 36 -63 c19 -35 35 -66 35 -69 0 -3
-10 -6 -22 -6 -18 0 -31 16 -61 70 -37 68 -39 70 -78 70 l-39 0 0 -70 c0 -68
-1 -70 -25 -70 l-25 0 0 175 0 175 74 0 c40 0 87 -5 105 -11z m293 -91 c24
-12 48 -61 48 -98 l0 -30 -95 0 c-99 0 -105 -3 -83 -43 26 -50 77 -61 121 -26
18 14 32 17 42 11 14 -7 12 -12 -10 -34 -48 -49 -137 -41 -179 15 -29 40 -29
134 0 174 35 46 101 60 156 31z m277 -16 c22 -24 22 -26 5 -32 -10 -4 -25 1
-36 12 -31 31 -98 17 -98 -21 0 -18 23 -31 80 -46 49 -14 70 -34 70 -68 0 -63
-75 -102 -143 -73 -43 17 -66 53 -42 62 9 4 25 -2 39 -15 25 -24 64 -27 90 -8
34 25 15 50 -53 73 -69 24 -81 35 -81 75 0 72 115 100 169 41z m246 24 c19 -8
41 -28 49 -45 22 -42 21 -128 -3 -167 -35 -57 -120 -65 -157 -16 -11 14 -13 6
-14 -55 0 -66 -2 -73 -20 -73 -19 0 -20 7 -20 180 0 173 1 180 20 180 14 0 20
-7 20 -22 1 -21 2 -22 14 -6 12 16 49 36 69 37 4 1 23 -5 42 -13z m280 0 c100
-42 100 -210 -1 -252 -27 -11 -43 -12 -74 -4 -118 32 -114 232 5 263 32 8 34
8 70 -7z m320 -17 c17 -17 20 -35 23 -129 4 -106 3 -110 -17 -110 -20 0 -21 5
-21 95 0 82 -3 98 -20 115 -27 27 -56 25 -85 -5 -23 -22 -25 -32 -25 -115 0
-83 -1 -90 -20 -90 -19 0 -20 7 -20 130 0 123 1 130 20 130 11 0 20 -6 20 -14
0 -11 8 -10 37 5 41 21 77 17 108 -12z m264 -7 c22 -24 22 -26 5 -32 -10 -4
-25 1 -36 12 -22 22 -57 23 -84 4 -29 -22 -8 -48 56 -68 68 -22 80 -34 80 -72
0 -62 -76 -100 -143 -72 -43 17 -66 53 -42 62 9 4 25 -2 39 -15 25 -24 64 -27
90 -8 32 24 16 50 -43 69 -66 21 -91 43 -91 78 0 73 115 102 169 42z m629 11
c26 -16 42 -51 42 -93 l0 -29 -92 -3 c-87 -3 -93 -4 -90 -23 4 -27 48 -65 76
-65 13 0 35 9 49 21 18 13 32 17 42 12 23 -13 -7 -50 -52 -62 -109 -30 -192
71 -149 184 30 77 104 102 174 58z m-508 -113 c0 -123 -1 -130 -20 -130 -19 0
-20 7 -20 130 0 123 1 130 20 130 19 0 20 -7 20 -130z m138 27 c19 -54 36 -96
38 -95 1 2 18 46 36 98 29 79 38 96 57 98 13 2 22 0 20 -5 -2 -5 -24 -64 -49
-131 -38 -105 -47 -122 -66 -122 -18 0 -27 17 -64 118 -23 64 -45 123 -48 130
-3 10 2 13 18 10 19 -2 29 -20 58 -101z"/>
<path d="M90 1365 l0 -65 58 0 c66 0 92 18 92 63 0 45 -32 67 -95 67 l-55 0 0
-65z"/>
<path d="M412 1343 c-11 -4 -42 -54 -42 -68 0 -3 34 -5 75 -5 84 0 95 11 50
55 -23 23 -53 30 -83 18z"/>
<path d="M939 1324 c-19 -20 -24 -37 -24 -74 0 -86 67 -128 120 -75 36 35 36
115 0 150 -31 32 -65 32 -96 -1z"/>
<path d="M1227 1330 c-72 -57 -18 -198 67 -176 49 12 71 97 41 155 -23 46 -66
54 -108 21z"/>
<path d="M2416 1329 c-14 -11 -26 -29 -26 -40 0 -17 8 -19 70 -19 61 0 70 2
70 18 0 24 -41 62 -67 62 -11 0 -32 -9 -47 -21z"/>
</g>
</svg>
